<svg width="100" height="100" viewBox="0 0 100 100" fill="none" xmlns="http://www.w3.org/2000/svg">
<g clip-path="url(#clip0_393_106)">
<path d="M89.6 0H10.4C4.65624 0 0 4.65624 0 10.4V89.6C0 95.3438 4.65624 100 10.4 100H89.6C95.3438 100 100 95.3438 100 89.6V10.4C100 4.65624 95.3438 0 89.6 0Z" fill="url(#paint0_linear_393_106)"/>
<g style="mix-blend-mode:soft-light" opacity="0.2">
<path d="M11.2337 28.2607H10.2029C9.93112 28.2514 9.65935 28.3166 9.42507 28.4562C9.13924 28.6518 8.97524 28.9823 9.00336 29.3268C8.97524 29.662 9.12518 29.9833 9.40164 30.1742C9.64529 30.3138 9.92644 30.3744 10.2123 30.3557H10.4887V41.9807C10.4372 42.572 10.8776 43.0934 11.4727 43.1446C12.0678 43.1959 12.5926 42.7582 12.6441 42.167C12.6488 42.1065 12.6488 42.0459 12.6441 41.9807V29.4898C12.6582 28.8147 12.124 28.2561 11.4446 28.2421C11.3743 28.2421 11.304 28.2467 11.2337 28.2561V28.2607ZM24.0163 30.4069C23.6274 29.7086 23.0745 29.1127 22.4044 28.6704C20.8956 27.7765 19.012 27.7765 17.4985 28.6704C16.8238 29.1173 16.2709 29.7226 15.8866 30.4302C15.4743 31.1891 15.1838 32.0085 15.0245 32.8604C14.8417 33.7822 14.7527 34.718 14.7574 35.6585C14.7527 36.5989 14.8511 37.5347 15.0479 38.4565C15.2213 39.2852 15.5258 40.0813 15.9475 40.8169C16.3411 41.5012 16.8941 42.0785 17.5594 42.5068C19.0167 43.3728 20.8394 43.3681 22.292 42.4929C22.9573 42.0506 23.5149 41.464 23.9179 40.7796C24.3537 40.0347 24.6629 39.2246 24.841 38.382C25.0378 37.4648 25.1362 36.5337 25.1315 35.5933C25.1362 34.6622 25.0472 33.731 24.8738 32.8139C24.7238 31.9666 24.4333 31.1518 24.021 30.3976L24.0163 30.4069ZM21.2611 40.6446C20.8816 40.9286 20.4177 41.0729 19.9444 41.0543C19.4665 41.0776 18.9932 40.9379 18.5996 40.6586C18.1967 40.3466 17.8734 39.9509 17.6485 39.4993C17.372 38.95 17.1846 38.3587 17.0862 37.7535C16.969 37.0644 16.9081 36.3614 16.9081 35.6585C16.9081 34.9461 16.9737 34.2338 17.0955 33.5355C17.1986 32.8977 17.3954 32.2738 17.6719 31.6872C17.8968 31.2077 18.2295 30.784 18.6418 30.4488C19.012 30.1602 19.4712 30.0066 19.9398 30.0252C20.4036 30.0066 20.8628 30.1602 21.2236 30.4488C21.6313 30.7887 21.9593 31.217 22.1842 31.7012C22.4607 32.2878 22.6528 32.907 22.7605 33.5448C22.8824 34.2338 22.9433 34.9275 22.948 35.6259C22.948 36.3195 22.8871 37.0086 22.7699 37.6929C22.6715 38.3075 22.4841 38.9034 22.2076 39.4574C21.978 39.9183 21.6547 40.3187 21.2517 40.6446H21.2611ZM29.4564 28.2607H28.4302C28.1585 28.2514 27.8867 28.3166 27.6524 28.4562C27.3666 28.6518 27.2073 28.9823 27.2307 29.3268C27.2026 29.662 27.3525 29.9833 27.629 30.1742C27.8726 30.3138 28.1538 30.3744 28.4396 30.3557H28.7161V41.9807C28.6598 42.572 29.0956 43.0981 29.6907 43.154C30.2858 43.2098 30.8152 42.7769 30.8715 42.1856C30.8762 42.1158 30.8762 42.0459 30.8715 41.9807V29.4898C30.8855 28.8147 30.3514 28.2561 29.6719 28.2421C29.6016 28.2421 29.5314 28.2467 29.4611 28.2561L29.4564 28.2607ZM29.4564 47.1019H28.4302C28.1585 47.0926 27.8867 47.1578 27.6524 47.2974C27.3666 47.493 27.2073 47.8235 27.2307 48.168C27.2026 48.5032 27.3525 48.8245 27.629 49.0154C27.8726 49.155 28.1538 49.2155 28.4396 49.1969H28.7161V60.8219C28.6598 61.4132 29.0956 61.9393 29.6907 61.9951C30.2858 62.051 30.8152 61.618 30.8715 61.0268C30.8762 60.957 30.8762 60.8871 30.8715 60.8219V48.331C30.8902 47.6559 30.3514 47.0972 29.6719 47.0833C29.6016 47.0833 29.5314 47.0879 29.4564 47.0972V47.1019ZM42.239 30.4069C41.85 29.7086 41.2971 29.1127 40.6271 28.6704C39.1183 27.7765 37.2346 27.7765 35.7212 28.6704C35.0464 29.1173 34.4935 29.7226 34.1093 30.4302C33.6969 31.1891 33.4064 32.0085 33.2471 32.8604C33.0644 33.7822 32.9753 34.718 32.98 35.6585C32.9753 36.5989 33.0737 37.5347 33.2705 38.4565C33.4439 39.2852 33.7485 40.0813 34.1702 40.8169C34.5638 41.5012 35.1167 42.0785 35.7821 42.5068C37.2393 43.3728 39.0621 43.3681 40.5146 42.4929C41.18 42.0506 41.7376 41.464 42.1406 40.7796C42.5763 40.0347 42.8856 39.2246 43.0636 38.382C43.2604 37.4648 43.3588 36.5337 43.3541 35.5933C43.3588 34.6622 43.2698 33.731 43.0964 32.8139C42.9465 31.9666 42.656 31.1518 42.2436 30.3976L42.239 30.4069ZM39.4791 40.6446C39.0995 40.9286 38.6357 41.0729 38.1624 41.0543C37.6845 41.0776 37.2112 40.9379 36.8176 40.6586C36.4146 40.3466 36.0913 39.9509 35.8664 39.4993C35.59 38.95 35.4025 38.3587 35.3041 37.7535C35.187 37.0644 35.1261 36.3614 35.1261 35.6585C35.1261 34.9461 35.1917 34.2338 35.3135 33.5355C35.4166 32.8977 35.6134 32.2738 35.8898 31.6872C36.1148 31.2077 36.4474 30.784 36.8598 30.4488C37.23 30.1602 37.6891 30.0066 38.1577 30.0252C38.6216 30.0066 39.0808 30.1602 39.4416 30.4488C39.8493 30.7887 40.1772 31.217 40.4022 31.7012C40.6786 32.2878 40.8707 32.907 40.9785 33.5448C41.1003 34.2338 41.1659 34.9275 41.1659 35.6259C41.1659 36.3195 41.105 37.0086 40.9879 37.6929C40.8895 38.3075 40.702 38.9034 40.4256 39.4574C40.196 39.9183 39.8727 40.3234 39.4697 40.6446H39.4791ZM47.679 28.2607H46.6529C46.3811 28.2514 46.1093 28.3166 45.875 28.4562C45.5892 28.6518 45.4299 28.9823 45.4533 29.3268C45.4252 29.662 45.5752 29.9833 45.8516 30.1742C46.0953 30.3138 46.3764 30.3744 46.6622 30.3557H46.9387V41.9807C46.8872 42.572 47.3276 43.0934 47.9227 43.1446C48.5178 43.1959 49.0426 42.7582 49.0941 42.167C49.0988 42.1065 49.0988 42.0459 49.0941 41.9807V29.4898C49.1129 28.8147 48.574 28.2561 47.8946 28.2421C47.8243 28.2421 47.7493 28.2467 47.679 28.2561V28.2607ZM11.2431 46.9855H10.2076C9.93112 46.9715 9.65935 47.0414 9.42507 47.181C9.13924 47.3766 8.97993 47.7071 9.00336 48.0516C8.97524 48.3868 9.12518 48.7081 9.40164 48.9036C9.64529 49.0386 9.92644 49.1038 10.2123 49.0852H10.4887V60.7055C10.4372 61.2968 10.8776 61.8182 11.4727 61.8694C12.0678 61.9207 12.5926 61.483 12.6441 60.8918C12.6488 60.8312 12.6488 60.7707 12.6441 60.7055V48.2099C12.6535 47.5349 12.1147 46.9809 11.4399 46.9715C11.3696 46.9715 11.304 46.9762 11.2384 46.9855H11.2431ZM24.0257 49.1271C23.6368 48.4287 23.0839 47.8328 22.4185 47.3906C20.905 46.4967 19.026 46.4967 17.5126 47.3906C16.8378 47.8375 16.2849 48.4427 15.9007 49.1504C15.4884 49.9092 15.1978 50.7286 15.0385 51.5806C14.8558 52.5024 14.7668 53.4382 14.7714 54.3739C14.7668 55.3144 14.8652 56.2501 15.062 57.172C15.2353 58.0007 15.5399 58.7968 15.9616 59.5323C16.3552 60.2167 16.9081 60.794 17.5735 61.2223C18.281 61.6599 19.1057 61.8881 19.9398 61.8694C20.7785 61.8881 21.6032 61.6553 22.3107 61.2084C22.9761 60.7707 23.5337 60.1795 23.9366 59.4951C24.3724 58.7502 24.6817 57.9401 24.8597 57.0975C25.0565 56.1757 25.1549 55.2399 25.1502 54.2995C25.1549 53.3683 25.0659 52.4372 24.8925 51.5201C24.7379 50.6774 24.4474 49.8673 24.0304 49.1178L24.0257 49.1271ZM21.2658 59.3647C20.891 59.6487 20.4224 59.7977 19.9491 59.7744C19.4712 59.7977 18.9979 59.658 18.6043 59.3787C18.2014 59.0668 17.8781 58.6711 17.6531 58.2195C17.3767 57.6701 17.1893 57.0788 17.0909 56.4736C16.8472 55.0769 16.8472 53.6523 17.0909 52.2556C17.1939 51.6178 17.3907 50.994 17.6672 50.4074C17.8921 49.9278 18.2248 49.5042 18.6371 49.169C19.0073 48.8803 19.4665 48.7267 19.9351 48.7453C20.399 48.7267 20.8582 48.8803 21.2189 49.169C21.6266 49.5088 21.9546 49.9372 22.1795 50.4213C22.456 51.0079 22.6481 51.6271 22.7559 52.265C22.8777 52.954 22.9386 53.6477 22.9433 54.346C22.9433 55.0397 22.8824 55.7287 22.7652 56.4131C22.6668 57.0276 22.4794 57.6235 22.2029 58.1822C21.978 58.6385 21.6547 59.0435 21.2517 59.3647H21.2658Z" fill="white"/>
<path d="M56.1361 28.2607H55.1053C54.8335 28.2514 54.5617 28.3166 54.3274 28.4562C54.0416 28.6518 53.8776 28.9823 53.9057 29.3268C53.8776 29.662 54.0276 29.9833 54.304 30.1742C54.5477 30.3138 54.8288 30.3744 55.1146 30.3557H55.3911V41.9807C55.3396 42.572 55.78 43.0934 56.3751 43.1446C56.9702 43.1959 57.495 42.7582 57.5465 42.167C57.5512 42.1065 57.5512 42.0459 57.5465 41.9807V29.4898C57.5606 28.8147 57.0264 28.2561 56.347 28.2421C56.2767 28.2421 56.2064 28.2467 56.1361 28.2561V28.2607ZM68.9187 30.4069C68.5298 29.7086 67.9769 29.1127 67.3068 28.6704C65.798 27.7765 63.9144 27.7765 62.4009 28.6704C61.7261 29.1173 61.1732 29.7226 60.789 30.4302C60.3767 31.1891 60.0862 32.0085 59.9268 32.8604C59.7441 33.7822 59.6551 34.718 59.6598 35.6585C59.6551 36.5989 59.7535 37.5347 59.9503 38.4565C60.1236 39.2852 60.4282 40.0813 60.8499 40.8169C61.2435 41.5012 61.7964 42.0785 62.4618 42.5068C63.919 43.3728 65.7418 43.3681 67.1943 42.4929C67.8597 42.0506 68.4173 41.464 68.8203 40.7796C69.2561 40.0347 69.5653 39.2246 69.7434 38.382C69.9402 37.4648 70.0386 36.5337 70.0339 35.5933C70.0386 34.6622 69.9495 33.731 69.7762 32.8139C69.6262 31.9666 69.3357 31.1518 68.9234 30.3976L68.9187 30.4069ZM66.1635 40.6446C65.784 40.9286 65.3201 41.0729 64.8468 41.0543C64.3689 41.0776 63.8956 40.9379 63.502 40.6586C63.0991 40.3466 62.7757 39.9509 62.5508 39.4993C62.2744 38.95 62.0869 38.3587 61.9885 37.7535C61.8714 37.0644 61.8105 36.3614 61.8105 35.6585C61.8105 34.9461 61.8761 34.2338 61.9979 33.5355C62.101 32.8977 62.2978 32.2738 62.5743 31.6872C62.7992 31.2077 63.1319 30.784 63.5442 30.4488C63.9144 30.1602 64.3736 30.0066 64.8421 30.0252C65.306 30.0066 65.7652 30.1602 66.126 30.4488C66.5337 30.7887 66.8617 31.217 67.0866 31.7012C67.363 32.2878 67.5551 32.907 67.6629 33.5448C67.7847 34.2338 67.8457 34.9275 67.8503 35.6259C67.8503 36.3195 67.7894 37.0086 67.6723 37.6929C67.5739 38.3075 67.3865 38.9034 67.11 39.4574C66.8804 39.9183 66.5571 40.3187 66.1541 40.6446H66.1635ZM74.3588 28.2607H73.3326C73.0608 28.2514 72.7891 28.3166 72.5548 28.4562C72.2689 28.6518 72.1096 28.9823 72.1331 29.3268C72.105 29.662 72.2549 29.9833 72.5313 30.1742C72.775 30.3138 73.0561 30.3744 73.342 30.3557H73.6184V41.9807C73.5622 42.572 73.998 43.0981 74.5931 43.154C75.1881 43.2098 75.7176 42.7769 75.7738 42.1856C75.7785 42.1158 75.7785 42.0459 75.7738 41.9807V29.4898C75.7879 28.8147 75.2537 28.2561 74.5743 28.2421C74.504 28.2421 74.4337 28.2467 74.3635 28.2561L74.3588 28.2607ZM57.1347 47.1019H56.1085C55.8367 47.0926 55.5649 47.1578 55.3307 47.2974C55.0448 47.493 54.8855 47.8235 54.9089 48.168C54.8808 48.5032 55.0308 48.8245 55.3072 49.0154C55.5509 49.155 55.832 49.2155 56.1179 49.1969H56.3943V60.8219C56.3381 61.4132 56.7739 61.9393 57.3689 61.9951C57.964 62.051 58.4935 61.618 58.5497 61.0268C58.5544 60.957 58.5544 60.8871 58.5497 60.8219V48.331C58.5685 47.6559 58.0296 47.0972 57.3502 47.0833C57.2799 47.0833 57.2096 47.0879 57.1347 47.0972V47.1019ZM87.1413 30.4069C86.7524 29.7086 86.1995 29.1127 85.5295 28.6704C84.0207 27.7765 82.137 27.7765 80.6235 28.6704C79.9488 29.1173 79.3959 29.7226 79.0117 30.4302C78.5993 31.1891 78.3088 32.0085 78.1495 32.8604C77.9668 33.7822 77.8777 34.718 77.8824 35.6585C77.8777 36.5989 77.9761 37.5347 78.1729 38.4565C78.3463 39.2852 78.6509 40.0813 79.0726 40.8169C79.4662 41.5012 80.0191 42.0785 80.6844 42.5068C82.1417 43.3728 83.9644 43.3681 85.417 42.4929C86.0824 42.0506 86.64 41.464 87.0429 40.7796C87.4787 40.0347 87.788 39.2246 87.966 38.382C88.1628 37.4648 88.2612 36.5337 88.2565 35.5933C88.2612 34.6622 88.1722 33.731 87.9988 32.8139C87.8489 31.9666 87.5584 31.1518 87.146 30.3976L87.1413 30.4069ZM84.3815 40.6446C84.0019 40.9286 83.538 41.0729 83.0648 41.0543C82.5868 41.0776 82.1136 40.9379 81.72 40.6586C81.317 40.3466 80.9937 39.9509 80.7688 39.4993C80.4923 38.95 80.3049 38.3587 80.2065 37.7535C80.0894 37.0644 80.0285 36.3614 80.0285 35.6585C80.0285 34.9461 80.0941 34.2338 80.2159 33.5355C80.319 32.8977 80.5158 32.2738 80.7922 31.6872C81.0171 31.2077 81.3498 30.784 81.7622 30.4488C82.1323 30.1602 82.5915 30.0066 83.0601 30.0252C83.524 30.0066 83.9832 30.1602 84.344 30.4488C84.7516 30.7887 85.0796 31.217 85.3045 31.7012C85.581 32.2878 85.7731 32.907 85.8809 33.5448C86.0027 34.2338 86.0683 34.9275 86.0683 35.6259C86.0683 36.3195 86.0074 37.0086 85.8902 37.6929C85.7918 38.3075 85.6044 38.9034 85.328 39.4574C85.0984 39.9183 84.7751 40.3234 84.3721 40.6446H84.3815ZM92.5814 28.2607H91.5552C91.2835 28.2514 91.0117 28.3166 90.7774 28.4562C90.4916 28.6518 90.3323 28.9823 90.3557 29.3268C90.3276 29.662 90.4775 29.9833 90.754 30.1742C90.9977 30.3138 91.2788 30.3744 91.5646 30.3557H91.8411V41.9807C91.7895 42.572 92.23 43.0934 92.8251 43.1446C93.4202 43.1959 93.9449 42.7582 93.9965 42.167C94.0012 42.1065 94.0012 42.0459 93.9965 41.9807V29.4898C94.0152 28.8147 93.4764 28.2561 92.797 28.2421C92.7267 28.2421 92.6517 28.2467 92.5814 28.2561V28.2607ZM38.9214 46.9855H37.8858C37.6094 46.9715 37.3376 47.0414 37.1033 47.181C36.8175 47.3766 36.6582 47.7071 36.6816 48.0516C36.6535 48.3868 36.8034 48.7081 37.0799 48.9036C37.3236 49.0386 37.6047 49.1038 37.8905 49.0852H38.167V60.7055C38.1154 61.2968 38.5559 61.8182 39.151 61.8694C39.7461 61.9207 40.2709 61.483 40.3224 60.8918C40.3271 60.8312 40.3271 60.7707 40.3224 60.7055V48.2099C40.3318 47.5349 39.7929 46.9809 39.1182 46.9715C39.0479 46.9715 38.9823 46.9762 38.9167 46.9855H38.9214ZM51.7039 49.1271C51.315 48.4287 50.7621 47.8328 50.0967 47.3906C48.5833 46.4967 46.7043 46.4967 45.1908 47.3906C44.5161 47.8375 43.9632 48.4427 43.579 49.1504C43.1666 49.9092 42.8761 50.7286 42.7168 51.5806C42.534 52.5024 42.445 53.4382 42.4497 54.3739C42.445 55.3144 42.5434 56.2501 42.7402 57.172C42.9136 58.0007 43.2182 58.7968 43.6399 59.5323C44.0335 60.2167 44.5864 60.794 45.2517 61.2223C45.9593 61.6599 46.784 61.8881 47.618 61.8694C48.4568 61.8881 49.2814 61.6553 49.989 61.2084C50.6543 60.7707 51.2119 60.1795 51.6149 59.4951C52.0507 58.7502 52.3599 57.9401 52.538 57.0975C52.7348 56.1757 52.8332 55.2399 52.8285 54.2995C52.8332 53.3683 52.7442 52.4372 52.5708 51.5201C52.4162 50.6774 52.1256 49.8673 51.7086 49.1178L51.7039 49.1271ZM48.9441 59.3647C48.5692 59.6487 48.1006 59.7977 47.6274 59.7744C47.1494 59.7977 46.6762 59.658 46.2826 59.3787C45.8796 59.0668 45.5563 58.6711 45.3314 58.2195C45.0549 57.6701 44.8675 57.0788 44.7691 56.4736C44.5255 55.0769 44.5255 53.6523 44.7691 52.2556C44.8722 51.6178 45.069 50.994 45.3455 50.4074C45.5704 49.9278 45.9031 49.5042 46.3154 49.169C46.6856 48.8803 47.1448 48.7267 47.6133 48.7453C48.0772 48.7267 48.5364 48.8803 48.8972 49.169C49.3049 49.5088 49.6329 49.9372 49.8578 50.4213C50.1342 51.0079 50.3263 51.6271 50.4341 52.265C50.5559 52.954 50.6169 53.6477 50.6215 54.346C50.6215 55.0397 50.5606 55.7287 50.4435 56.4131C50.3451 57.0276 50.1577 57.6235 49.8812 58.1822C49.6563 58.6385 49.333 59.0435 48.93 59.3647H48.9441Z" fill="white"/>
</g>
<path d="M23.7998 74.9H19.7998V72.8H37.3998V74.9H33.0998V80.1C33.0998 80.3 33.0998 80.4 33.2998 80.5C33.3998 80.6 33.5998 80.7 33.6998 80.7H37.3998L36.4998 82.6H32.2998C31.9998 82.6 31.7998 82.6 31.4998 82.4C31.1998 82.2 30.9998 82.1 30.8998 82C30.6998 81.8 30.5998 81.6 30.4998 81.4C30.3998 81.2 30.2998 80.9 30.2998 80.6V74.9H26.6998L23.1998 82.6H20.2998L23.7998 74.9ZM20.5998 68.1H36.7998V70.2H20.5998V68.1Z" fill="white"/>
<path d="M40.7996 78L44.3996 71.7H41.1996V69.7H42.6996L41.9996 68.1H44.8996L45.5996 69.7H48.2996L45.9996 73.9H47.4996L48.7996 79.2H46.4996L45.5996 75.5V82.7H42.9996V78.1H40.5996L40.7996 78ZM49.2996 68.1H56.6996C57.1996 68.1 57.6996 68.3 58.0996 68.7C58.4996 69.1 58.6996 69.5 58.6996 70V78.9H55.8996V70.6C55.8996 70.3 55.8996 70.1 55.5996 69.9C55.3996 69.7 55.1996 69.6 54.8996 69.6H51.8996V78.8L52.6996 77.9V71.4H55.2996V78.6L54.4996 79.5H56.5996V80.4C56.5996 80.6 56.5996 80.7 56.7996 80.8C56.8996 80.9 57.0996 81 57.2996 81H59.2996L58.3996 82.5H56.1996C55.8996 82.5 55.5996 82.5 55.2996 82.3C54.9996 82.2 54.7996 82 54.5996 81.8C54.3996 81.6 54.1996 81.4 54.0996 81.1C53.9996 80.8 53.8996 80.5 53.8996 80.2V79.9L51.7996 82.4H48.4996L51.7996 78.7H49.2996V67.9V68.1Z" fill="white"/>
<path d="M64.9999 77.9H62.3999L65.5999 75.2H62.7999V68.2H79.5999V73C79.5999 73.3 79.5999 73.6 79.3999 73.9C79.2999 74.2 79.0999 74.4 78.8999 74.6C78.6999 74.8 78.4999 75 78.1999 75.1C77.8999 75.2 77.5999 75.3 77.2999 75.3H76.8999L80.0999 78H77.0999V82.5H74.3999V77.1H75.9999L73.9999 75.3H68.4999L66.4999 77.1H67.5999V80.5L66.6999 82.6H63.9999L64.8999 80.5V78L64.9999 77.9ZM65.0999 70V71H70.0999V70H65.0999ZM65.0999 73.5H70.0999V72.5H65.0999V73.5ZM77.3999 70H72.7999V71H77.3999V70ZM76.6999 73.5C76.8999 73.5 76.9999 73.5 77.0999 73.3C77.1999 73.2 77.2999 73 77.2999 72.8V72.5H72.6999V73.5H76.6999Z" fill="white"/>
<g filter="url(#filter0_d_393_106)">
<path d="M17.426 21.712V13.286H20.374V24H14.566C13.73 24 13.0847 23.9413 12.63 23.824C12.1753 23.692 11.772 23.4647 11.42 23.142C10.672 22.4673 10.298 21.3747 10.298 19.864V13.286H13.224V20.172C13.224 20.656 13.3487 21.0373 13.598 21.316C13.862 21.58 14.214 21.712 14.654 21.712H17.426ZM23.2562 13.286H27.6122C28.5068 13.286 29.1962 13.352 29.6802 13.484C30.1788 13.6013 30.5895 13.8067 30.9122 14.1C31.2348 14.3933 31.4622 14.76 31.5942 15.2C31.7262 15.64 31.7922 16.2707 31.7922 17.092V18.126H28.9542V17.554C28.9542 16.7913 28.8222 16.2707 28.5582 15.992C28.2942 15.7133 27.7882 15.574 27.0402 15.574H26.2042V24H23.2562V13.286ZM36.4952 24H33.5472V9.326H36.4952V24Z" fill="white"/>
</g>
<path d="M25.8469 48.2318L25.9308 45.1802C21.4139 42.3798 18.28 37.8072 17.7071 33.1655C17.5982 32.3203 18.1726 31.6887 19.0428 31.6788C19.1018 31.6836 19.1553 31.6841 19.2144 31.6889C19.2322 31.689 19.2466 31.6935 19.2645 31.6936C20.196 31.8098 21.0329 32.6091 21.1412 33.489C21.5122 36.4881 23.3154 39.4821 26.0315 41.6222L26.1076 39.0771C26.1111 38.813 26.2685 38.6152 26.5251 38.5524C26.5744 38.5355 26.628 38.536 26.6815 38.5365L26.6815 38.5365C26.8956 38.5383 27.1216 38.6268 27.2983 38.7885L33.9912 44.9497C34.1844 45.1245 34.2941 45.3593 34.2836 45.5757C34.2786 45.7964 34.1561 45.9729 33.9628 46.0578L27.0003 49.0512C26.7788 49.1489 26.4919 49.1032 26.2472 48.9366C25.997 48.7656 25.8413 48.4872 25.8469 48.2318Z" fill="white"/>
<g filter="url(#filter1_d_393_106)">
<path d="M46.226 35.658V46.058C46.226 46.89 46.2953 47.54 46.434 48.008C46.5727 48.4587 46.8067 48.8487 47.136 49.178C47.864 49.8887 48.878 50.244 50.178 50.244C51.01 50.244 51.7293 50.1053 52.336 49.828C52.96 49.5333 53.3933 49.1433 53.636 48.658C53.8787 48.1727 54 47.306 54 46.058V35.658H57.692V45.876C57.692 47.228 57.5447 48.346 57.25 49.23C56.9727 50.0967 56.5393 50.7987 55.95 51.336C54.5807 52.532 52.6393 53.13 50.126 53.13C47.4393 53.13 45.4807 52.5407 44.25 51.362C43.6087 50.7553 43.1667 50.0793 42.924 49.334C42.6813 48.5713 42.56 47.5053 42.56 46.136V35.658H46.226ZM64.7413 46.422V53H61.0493V35.658H69.5253C71.9519 35.658 73.6419 35.97 74.5953 36.594C75.2539 37.01 75.7566 37.5647 76.1033 38.258C76.4673 38.934 76.6493 39.6793 76.6493 40.494C76.6493 42.1407 76.2333 43.4147 75.4013 44.316C74.8813 44.8533 74.1966 45.2607 73.3473 45.538C74.0233 45.7807 74.5346 46.0407 74.8813 46.318C75.2279 46.578 75.5399 46.968 75.8173 47.488C76.0253 47.904 76.1726 48.3027 76.2593 48.684C76.3633 49.0653 76.4413 49.6287 76.4933 50.374C76.5973 51.622 76.7359 52.4973 76.9093 53H72.7753C72.6539 52.6013 72.5239 51.778 72.3853 50.53C72.2986 49.5247 72.1166 48.7533 71.8393 48.216C71.5793 47.6787 71.1806 47.254 70.6433 46.942C69.9673 46.578 68.9879 46.4047 67.7053 46.422H64.7413ZM64.7413 43.328H69.9153C70.7819 43.328 71.3973 43.198 71.7613 42.938C72.3159 42.5567 72.5933 41.8893 72.5933 40.936C72.5933 39.8787 72.1773 39.2027 71.3453 38.908C71.0506 38.804 70.5739 38.752 69.9153 38.752H64.7413V43.328ZM79.4018 35.658H83.0678V45.408C83.1198 46.6387 83.1718 47.4533 83.2238 47.852C83.3451 48.6493 83.7265 49.1953 84.3678 49.49C85.0091 49.7673 86.1358 49.906 87.7478 49.906H91.2838V53H87.3578C85.5031 53 84.1598 52.896 83.3278 52.688C81.4211 52.1333 80.2078 50.92 79.6878 49.048C79.4971 48.32 79.4018 47.1067 79.4018 45.408V35.658Z" fill="white"/>
</g>
</g>
<defs>
<filter id="filter0_d_393_106" x="10.2979" y="9.32599" width="27.1973" height="15.674" filterUnits="userSpaceOnUse" color-interpolation-filters="sRGB">
<feFlood flood-opacity="0" result="BackgroundImageFix"/>
<feColorMatrix in="SourceAlpha" type="matrix" values="0 0 0 0 0 0 0 0 0 0 0 0 0 0 0 0 0 0 127 0" result="hardAlpha"/>
<feOffset dx="1" dy="1"/>
<feComposite in2="hardAlpha" operator="out"/>
<feColorMatrix type="matrix" values="0 0 0 0 0 0 0 0 0 0.313726 0 0 0 0 0.211765 0 0 0 1 0"/>
<feBlend mode="normal" in2="BackgroundImageFix" result="effect1_dropShadow_393_106"/>
<feBlend mode="normal" in="SourceGraphic" in2="effect1_dropShadow_393_106" result="shape"/>
</filter>
<filter id="filter1_d_393_106" x="42.5601" y="35.658" width="50.2236" height="18.972" filterUnits="userSpaceOnUse" color-interpolation-filters="sRGB">
<feFlood flood-opacity="0" result="BackgroundImageFix"/>
<feColorMatrix in="SourceAlpha" type="matrix" values="0 0 0 0 0 0 0 0 0 0 0 0 0 0 0 0 0 0 127 0" result="hardAlpha"/>
<feOffset dx="1.5" dy="1.5"/>
<feComposite in2="hardAlpha" operator="out"/>
<feColorMatrix type="matrix" values="0 0 0 0 0 0 0 0 0 0.313726 0 0 0 0 0.211765 0 0 0 1 0"/>
<feBlend mode="normal" in2="BackgroundImageFix" result="effect1_dropShadow_393_106"/>
<feBlend mode="normal" in="SourceGraphic" in2="effect1_dropShadow_393_106" result="shape"/>
</filter>
<linearGradient id="paint0_linear_393_106" x1="50" y1="100" x2="50" y2="0" gradientUnits="userSpaceOnUse">
<stop stop-color="#00482F"/>
<stop offset="1" stop-color="#A6DEB3"/>
</linearGradient>
<clipPath id="clip0_393_106">
<rect width="100" height="100" fill="white"/>
</clipPath>
</defs>
</svg>
